<mxfile host="app.diagrams.net" modified="2024-02-16T12:14:50.333Z" agent="Mozilla/5.0 (Windows NT 10.0; Win64; x64) AppleWebKit/537.36 (KHTML, like Gecko) Chrome/121.0.0.0 Safari/537.36" version="22.1.21" etag="wpl_lPnf5wRdYgZSWj1S" type="github">
  <diagram name="Page-1" id="m-jt-wk8MbN6X5PGDYF3">
    <mxGraphModel>
      <root>
        <mxCell id="0" />
        <mxCell id="1" parent="0" />
      </root>
    </mxGraphModel>
  </diagram>
</mxfile>
